<?xml version="1.0" encoding="utf-8"?>
<!-- Generator: Adobe Illustrator 27.3.1, SVG Export Plug-In . SVG Version: 6.00 Build 0)  -->
<svg version="1.1" id="Calque_1" xmlns="http://www.w3.org/2000/svg" xmlns:xlink="http://www.w3.org/1999/xlink" x="0px" y="0px"
	 viewBox="0 0 200 270" style="enable-background:new 0 0 200 270;" xml:space="preserve">
<g id="_x32_">
	<polygon points="124.8,223.5 100,223.5 100,268.8 124.8,268.8 124.8,268.8 199.3,268.8 199.3,223.5 124.8,223.5 	"/>
	<path d="M170.2,170.8c9.1-9.1,16.3-19.7,21.3-31.6c5.2-12.3,7.8-25.3,7.8-38.7c0-13.4-2.6-26.4-7.8-38.7
		c-5-11.8-12.2-22.4-21.3-31.6C161.1,21.2,150.5,14,138.7,9c-12.3-5.2-25.3-7.8-38.7-7.8C86.6,1.2,73.6,3.8,61.3,9
		c-11.8,5-22.5,12.2-31.6,21.3C20.7,39.4,13.5,50,8.5,61.9c-5.2,12.3-7.8,25.3-7.8,38.7H46c0-29.8,24.2-54,54-54
		c29.8,0,54,24.2,54,54c0,18.3-9.2,34.6-23.2,44.3c-0.2,0.1-0.3,0.2-0.5,0.3L100.7,166L0.9,235.9l32.5,32.5l121.4-85
		C160.3,179.7,165.5,175.5,170.2,170.8z"/>
</g>
</svg>
