<?xml version="1.0" encoding="utf-8"?>
<!-- Generator: Adobe Illustrator 27.3.1, SVG Export Plug-In . SVG Version: 6.00 Build 0)  -->
<svg version="1.1" id="Calque_1" xmlns="http://www.w3.org/2000/svg" xmlns:xlink="http://www.w3.org/1999/xlink" x="0px" y="0px"
	 viewBox="0 0 200 270" style="enable-background:new 0 0 200 270;" xml:space="preserve">
<g>
	<path d="M170.2,99c-0.3-0.3-0.6-0.6-0.9-0.9l-32,32c10.3,9.8,16.8,23.7,16.8,39.1c0,29.8-24.2,54.1-54.1,54.1
		c-29.8,0-54.1-24.2-54.1-54.1H0.7c0,13.4,2.6,26.4,7.8,38.7c5,11.8,12.2,22.4,21.3,31.6c9.1,9.1,19.7,16.3,31.6,21.3
		c12.3,5.2,25.3,7.8,38.7,7.8c13.4,0,26.4-2.6,38.7-7.8c11.8-5,22.5-12.2,31.6-21.3c9.1-9.1,16.3-19.7,21.3-31.6
		c5.2-12.3,7.8-25.3,7.8-38.7c0-13.4-2.6-26.4-7.8-38.7C186.5,118.8,179.3,108.1,170.2,99z"/>
	<rect x="0.7" y="1.4" width="99.3" height="45.3"/>
	<rect x="56.1" y="47.5" transform="matrix(0.7071 -0.7071 0.7071 0.7071 -11.3032 112.9078)" width="149" height="45.3"/>
</g>
</svg>