<?xml version="1.0" encoding="utf-8"?>
<!-- Generator: Adobe Illustrator 27.3.1, SVG Export Plug-In . SVG Version: 6.00 Build 0)  -->
<svg version="1.1" id="Calque_1" xmlns="http://www.w3.org/2000/svg" xmlns:xlink="http://www.w3.org/1999/xlink" x="0px" y="0px"
	 viewBox="0 0 200 271" style="enable-background:new 0 0 200 271;" xml:space="preserve">
<g>
	<path d="M57,133.2c17.2-7.3,32.7-17.7,45.9-31s23.7-28.7,31-45.9c7.6-17.9,11.4-36.8,11.4-56.3H100c0,13.4-2.6,26.4-7.8,38.7
		c-5,11.8-12.2,22.4-21.3,31.6c-9.1,9.1-19.7,16.3-31.6,21.3c-12.3,5.2-25.3,7.8-38.7,7.8h0v45.3h0C20.2,144.6,39.1,140.8,57,133.2z
		"/>
	<polygon points="199.3,144.8 172.3,144.8 172.3,72.3 127,72.3 127,144.8 0.7,144.8 0.7,190.1 127,190.1 127,271 172.3,271 
		172.3,190.1 199.3,190.1 	"/>
</g>
</svg>
