<?xml version="1.0" encoding="UTF-8"?><svg id="hero-text-banner" xmlns="http://www.w3.org/2000/svg" viewBox="0 0 1627.7973633 443.3827235"><defs><style>.cls-1{fill:#fff;}.cls-2{isolation:isolate;}.cls-3{fill:#2bffb1;}</style></defs><g id="_" class="cls-2"><g class="cls-2"><path class="cls-3" d="m0,179.7411219l84.3999023-51.2001953v34l-38,24,38,22.5996094v35.7998047L0,194.9403407v-15.1992188Z"/></g></g><g id="_2" class="cls-2"><g class="cls-2"><path class="cls-3" d="m1525.199707,292.3407313l-101,142h-35.3994141l101-142h35.3994141Z"/><path class="cls-3" d="m1627.7973633,390.9403407l-84.5996094,50v-35.7998047l38.1992188-22.5996094-38.1992188-24v-34l84.5996094,51.2001953v15.1992188Z"/></g></g><g id="CREATIVE-2"><g class="cls-2"><path class="cls-1" d="m123,184.140536c0-8.53125,1.6000977-17.03125,4.800293-25.5,3.199707-8.4658203,7.8652344-16.03125,14-22.7001953,6.1308594-6.6650391,13.5996094-12.0654297,22.3999023-16.1992188,8.7998047-4.1318359,18.7998047-6.2001953,30-6.2001953,13.3310547,0,24.8999023,2.8681641,34.699707,8.5996094,9.800293,5.734375,17.1000977,13.2001953,21.9003906,22.4003906l-25.2001953,17.5996094c-1.6000977-3.7314453-3.6342773-6.8310547-6.1000977-9.2998047-2.46875-2.4658203-5.168457-4.4658203-8.1000977-6-2.934082-1.53125-5.934082-2.5996094-9-3.2001953-3.0683594-.5996094-6.0683594-.8994141-9-.8994141-6.2685547,0-11.734375,1.2685547-16.3999023,3.7998047-4.668457,2.5341797-8.5341797,5.7998047-11.6000977,9.7998047-3.0683594,4-5.3339844,8.5341797-6.7998047,13.5996094-1.46875,5.0693359-2.2001953,10.2001953-2.2001953,15.4003906,0,5.5996094.8657227,11,2.6000977,16.2001953,1.7314453,5.2001953,4.2314453,9.7998047,7.5,13.7998047,3.265625,4,7.2001953,7.1689453,11.800293,9.5,4.5996094,2.3339844,9.765625,3.5,15.5,3.5,2.9311523,0,5.965332-.3652344,9.0996094-1.0996094,3.1313477-.7314453,6.1313477-1.8662109,9-3.4003906,2.8657227-1.53125,5.5-3.53125,7.9003906-6,2.3999023-2.4658203,4.3310547-5.5,5.7998047-9.0996094l26.7998047,15.7998047c-2.1342773,5.2001953-5.2998047,9.8681641-9.5,14-4.199707,4.1337891-9.0341797,7.5996094-14.5,10.3994141-5.46875,2.8007812-11.2685547,4.9345703-17.3999023,6.4003906-6.1342773,1.4658203-12.1342773,2.2001953-18,2.2001953-10.2685547,0-19.699707-2.1005859-28.2998047-6.2998047-8.6000977-4.2001953-16-9.765625-22.2001953-16.7001953-6.199707-6.9316406-11-14.7998047-14.3999023-23.6005859-3.3999023-8.7998047-5.1000977-17.7304688-5.1000977-26.7998047Z"/><path class="cls-1" d="m268.7978516,256.3407313V114.3407313h64c6.6655273,0,12.8310547,1.4003906,18.5,4.2001953,5.6655273,2.7998047,10.5654297,6.46875,14.699707,11,4.1313477,4.5341797,7.3657227,9.6689453,9.7001953,15.3994141,2.3310547,5.734375,3.5,11.5351562,3.5,17.4003906,0,4.4003906-.5341797,8.6347656-1.6000977,12.7001953-1.0688477,4.0683594-2.6000977,7.8994141-4.6000977,11.5-2,3.5996094-4.434082,6.8339844-7.2998047,9.7001953-2.8686523,2.8681641-6.1000977,5.2998047-9.7001953,7.2998047l31.2001953,52.7998047h-37l-27.2001953-45.7998047h-21.3999023v45.7998047h-32.7998047Zm32.7998047-74.4003906h30c3.8657227,0,7.2001953-1.8310547,10-5.5,2.800293-3.6650391,4.2001953-8.3652344,4.2001953-14.0996094,0-5.8652344-1.6000977-10.53125-4.800293-14-3.199707-3.4658203-6.668457-5.2001953-10.3999023-5.2001953h-29v38.7998047Z"/><path class="cls-1" d="m502.597168,227.5409266v28.7998047h-99.7998047V114.3407313h98v28.7998047h-65.2001953v27.6005859h56v26.5996094h-56v30.2001953h67Z"/><path class="cls-1" d="m561.1972656,114.3407313h29.5996094l51.800293,142h-33.6000977l-11-31.7998047h-44.2001953l-10.7998047,31.7998047h-33.6000977l51.800293-142Zm31.3999023,87.5996094l-16.6000977-50.1992188-17,50.1992188h33.6000977Z"/><path class="cls-1" d="m750.7983398,143.140536h-43.199707v113.2001953h-32.800293v-113.2001953h-43.3999023v-28.7998047h119.3999023v28.7998047Z"/><path class="cls-1" d="m766.7958984,256.3407313V114.3407313h32.7998047v142h-32.7998047Z"/><path class="cls-1" d="m847.3930664,114.3407313l33.4003906,100.7998047,33-100.7998047h34.5996094l-53.7998047,142h-27.6005859l-54.3994141-142h34.7998047Z"/><path class="cls-1" d="m1061.3930664,227.5409266v28.7998047h-99.8007812V114.3407313h98v28.7998047h-65.1992188v27.6005859h56v26.5996094h-56v30.2001953h67Z"/></g></g><g id="DEVELOPER"><g class="cls-2"><path class="cls-1" d="m213.2001953,434.3407313v-142h53c11.730957,0,22,1.8691406,30.7998047,5.5996094,8.800293,3.734375,16.1655273,8.8007812,22.1000977,15.2001953,5.9311523,6.4003906,10.3999023,13.9003906,13.3999023,22.5,3,8.6005859,4.5,17.7685547,4.5,27.5,0,10.7998047-1.668457,20.5693359-5,29.2998047-3.3344727,8.734375-8.1000977,16.2001953-14.2998047,22.4003906-6.2001953,6.2001953-13.6689453,11-22.3999023,14.4003906-8.734375,3.3994141-18.4345703,5.0996094-29.1000977,5.0996094h-53Zm90.3999023-71.2001953c0-6.265625-.8344727-11.9658203-2.5-17.0996094-1.6689453-5.1318359-4.1000977-9.5654297-7.2998047-13.2998047-3.2001953-3.7314453-7.1347656-6.6005859-11.800293-8.6005859-4.668457-2-9.934082-3-15.7998047-3h-20.2001953v84.4003906h20.2001953c6,0,11.3310547-1.0654297,16-3.2001953,4.6655273-2.1308594,8.5654297-5.0996094,11.699707-8.9003906,3.1313477-3.7998047,5.53125-8.265625,7.2001953-13.3994141,1.6655273-5.1318359,2.5-10.765625,2.5-16.9003906Z"/><path class="cls-1" d="m456.1977539,405.5409266v28.7998047h-99.7998047v-142h98v28.7998047h-65.2001953v27.6005859h56v26.5996094h-56v30.2001953h67Z"/><path class="cls-1" d="m496.7978516,292.3407313l33.3999023,100.7998047,33-100.7998047h34.6000977l-53.800293,142h-27.6000977l-54.3999023-142h34.800293Z"/><path class="cls-1" d="m710.796875,405.5409266v28.7998047h-99.7998047v-142h98v28.7998047h-65.2001953v27.6005859h56v26.5996094h-56v30.2001953h67Z"/><path class="cls-1" d="m730.796875,434.3407313v-142h32.7998047v113.2001953h68.800293v28.7998047h-101.6000977Z"/><path class="cls-1" d="m900.9946289,435.5409266c-10.5332031,0-20.1337891-2.0654297-28.7988281-6.2001953-8.6699219-4.1308594-16.0693359-9.5654297-22.2011719-16.2998047-6.1337891-6.7314453-10.8994141-14.4316406-14.2988281-23.1005859-3.4003906-8.6650391-5.1005859-17.5996094-5.1005859-26.7998047,0-9.3310547,1.765625-18.3310547,5.2998047-27,3.53125-8.6650391,8.4658203-16.2998047,14.8007812-22.8994141,6.3300781-6.6005859,13.8300781-11.8662109,22.5-15.8007812,8.6650391-3.9306641,18.1308594-5.8994141,28.3994141-5.8994141,10.53125,0,20.1318359,2.0683594,28.7998047,6.2001953,8.6660156,4.1337891,16.0664062,9.5996094,22.2001953,16.3994141,6.1318359,6.7998047,10.8662109,14.5341797,14.2001953,23.2001953,3.3310547,8.6689453,5,17.46875,5,26.4003906,0,9.3339844-1.7695312,18.3339844-5.3007812,27-3.5332031,8.6679688-8.4335938,16.2998047-14.6992188,22.8994141-6.2695312,6.6005859-13.734375,11.9003906-22.4003906,15.9003906-8.6679688,4-18.1347656,6-28.4003906,6Zm-37-72c0,5.46875.8007812,10.7685547,2.4003906,15.8994141,1.5996094,5.1347656,3.9658203,9.7001953,7.0996094,13.7001953,3.1318359,4,7.03125,7.2001953,11.7011719,9.6005859,4.6650391,2.3994141,10,3.5996094,16,3.5996094,6.265625,0,11.7304688-1.265625,16.3994141-3.7998047,4.6650391-2.53125,8.53125-5.8310547,11.6005859-9.9003906,3.0644531-4.0654297,5.3652344-8.6650391,6.8994141-13.7998047,1.53125-5.1308594,2.2998047-10.3652344,2.2998047-15.7001953,0-5.4658203-.7998047-10.765625-2.4003906-15.8994141-1.5996094-5.1318359-4-9.6660156-7.1992188-13.6005859-3.2001953-3.9306641-7.0996094-7.0654297-11.7001953-9.3994141-4.6005859-2.3320312-9.8994141-3.5-15.8994141-3.5-6.2695312,0-11.7011719,1.234375-16.3007812,3.6992188-4.5996094,2.46875-8.46875,5.7001953-11.5996094,9.7001953-3.1347656,4-5.46875,8.5693359-7,13.7001953-1.5351562,5.1347656-2.3007812,10.3691406-2.3007812,15.7001953Z"/><path class="cls-1" d="m990.793457,434.3407313v-142h60.6005859c6.7998047,0,13.03125,1.4003906,18.7001953,4.2001953,5.6650391,2.7998047,10.53125,6.46875,14.5996094,11,4.0654297,4.5341797,7.265625,9.6689453,9.5996094,15.3994141,2.3320312,5.734375,3.5,11.5351562,3.5,17.4003906,0,6.2685547-1.0996094,12.2685547-3.2998047,18-2.2001953,5.734375-5.2685547,10.8691406-9.2001953,15.4003906-3.9335938,4.5341797-8.6992188,8.1337891-14.2998047,10.7998047-5.5996094,2.6689453-11.7998047,4-18.5996094,4h-28.7998047v45.7998047h-32.8007812Zm32.8007812-74.4003906h26.7998047c3.8652344,0,7.2001953-1.6650391,10-5,2.7998047-3.3310547,4.2001953-8.1992188,4.2001953-14.5996094,0-3.3310547-.4345703-6.2001953-1.3007812-8.5996094-.8681641-2.4003906-2.0341797-4.4003906-3.5-6-1.46875-1.6005859-3.1337891-2.765625-5-3.5-1.8681641-.7314453-3.734375-1.1005859-5.5996094-1.1005859h-25.5996094v38.7998047Z"/><path class="cls-1" d="m1215.1918945,405.5409266v28.7998047h-99.8007812v-142h98v28.7998047h-65.1992188v27.6005859h56v26.5996094h-56v30.2001953h67Z"/><path class="cls-1" d="m1235.190918,434.3407313v-142h64c6.6660156,0,12.8320312,1.4003906,18.5,4.2001953,5.6660156,2.7998047,10.5664062,6.46875,14.7001953,11,4.1318359,4.5341797,7.3662109,9.6689453,9.7001953,15.3994141,2.3310547,5.734375,3.5,11.5351562,3.5,17.4003906,0,4.4003906-.5341797,8.6347656-1.5996094,12.7001953-1.0693359,4.0683594-2.6005859,7.8994141-4.6005859,11.5-2,3.5996094-4.4345703,6.8339844-7.2998047,9.7001953-2.8691406,2.8681641-6.0996094,5.2998047-9.7001953,7.2998047l31.2001953,52.7998047h-37l-27.2001953-45.7998047h-21.3994141v45.7998047h-32.8007812Zm32.8007812-74.4003906h30c3.8652344,0,7.1992188-1.8310547,10-5.5,2.7998047-3.6650391,4.1992188-8.3652344,4.1992188-14.0996094,0-5.8652344-1.5996094-10.53125-4.7998047-14-3.2001953-3.4658203-6.6689453-5.2001953-10.3994141-5.2001953h-29v38.7998047Z"/></g></g><g id="junior"><g class="cls-2"><path class="cls-1" d="m130.6855469,434.1610438h-7.6855469v-8.4804688h7.6855469v8.4804688Zm41.7109375,1.7480469c0,1.4140625-.2207031,2.7568359-.6621094,4.0292969-.4423828,1.2714844-1.1054688,2.4189453-1.9882812,3.4443359l-5.7763672-3.5507812c.3876953-.3896484.6708984-.8310547.8476562-1.3251953.1767578-.4951172.2646484-1.0068359.2646484-1.5371094,0-.8125-.2646484-1.484375-.7949219-2.0136719-.5292969-.5302734-1.2373047-.7949219-2.1201172-.7949219h-28.3017578v-8.4804688h27.6660156c1.5898438,0,3.0556641.2568359,4.3994141.7685547,1.3417969.5126953,2.4912109,1.2275391,3.4443359,2.1464844.9541016.9189453,1.6962891,2.0058594,2.2265625,3.2597656.5302734,1.2548828.7949219,2.6064453.7949219,4.0537109Z"/><path class="cls-1" d="m162.2207031,411.47745c0,2.8613281-.8925781,5.0263672-2.6767578,6.4921875-1.7841797,1.4667969-4.4072266,2.1992188-7.8701172,2.1992188h-17.8085938v-8.4794922h15.953125c1.6962891,0,2.9941406-.3349609,3.8955078-1.0068359.9013672-.6708984,1.3515625-1.625,1.3515625-2.8623047,0-1.1298828-.2998047-2.2255859-.9013672-3.2861328-.5996094-1.0605469-1.6425781-1.9960938-3.1269531-2.8085938h-17.171875v-8.4804688h18.2851562c.8476562,0,1.4404297-.1328125,1.7753906-.3974609.3359375-.2646484.5390625-.7333984.609375-1.4042969h7.1552734c.1767578.8134766.2910156,1.5019531.3447266,2.0673828.0527344.5654297.0791016,1.078125.0791016,1.5371094,0,3.0390625-1.1835938,4.7695312-3.5507812,5.1933594l-1.6962891.1591797c1.8378906,1.2724609,3.1894531,2.8535156,4.0546875,4.7431641.8652344,1.890625,1.2988281,4.0019531,1.2988281,6.3339844Z"/><path class="cls-1" d="m161.6904297,359.8553797v8.4794922h-15.6347656c-1.8369141,0-3.1708984.3447266-4.0019531,1.0332031-.8291016.6894531-1.2451172,1.5996094-1.2451172,2.7304688,0,.6015625.1240234,1.2011719.3710938,1.8017578s.5917969,1.1845703,1.0332031,1.7490234c.4423828.5654297.9628906,1.0683594,1.5634766,1.5097656.6015625.4433594,1.2548828.7871094,1.9609375,1.0341797h15.953125v8.4794922h-27.8251953v-7.6308594h4.6640625c-1.6601562-1.0253906-2.9414062-2.4736328-3.8427734-4.3466797-.9003906-1.8720703-1.3515625-4.0283203-1.3515625-6.4658203,0-1.8027344.3271484-3.25.9814453-4.3457031.6533203-1.0957031,1.5019531-1.9433594,2.5439453-2.5449219,1.0419922-.5996094,2.1816406-.9980469,3.4179688-1.1914062,1.2373047-.1943359,2.4384766-.2919922,3.6044922-.2919922h17.8076172Z"/><path class="cls-1" d="m130.6855469,354.2372157h-7.6855469v-8.4794922h7.6855469v8.4794922Zm31.0048828,0h-27.8251953v-8.4794922h27.8251953v8.4794922Z"/><path class="cls-1" d="m162.2207031,326.6786219c0,2.3671875-.3896484,4.4785156-1.1660156,6.3330078-.7773438,1.8544922-1.8291016,3.4189453-3.1533203,4.6904297-1.3251953,1.2714844-2.8623047,2.2353516-4.6113281,2.8886719-1.7490234.6542969-3.5771484.9804688-5.4853516.9804688s-3.7363281-.3261719-5.4853516-.9804688c-1.7490234-.6533203-3.2861328-1.6171875-4.6113281-2.8886719s-2.3847656-2.8359375-3.1796875-4.6904297-1.1933594-3.9658203-1.1933594-6.3330078.3984375-4.4697266,1.1933594-6.3076172c.7949219-1.8369141,1.8544922-3.3916016,3.1796875-4.6640625s2.8623047-2.2431641,4.6113281-2.9150391c1.7490234-.6699219,3.5771484-1.0068359,5.4853516-1.0068359s3.7363281.3271484,5.4853516.9804688c1.7490234.6542969,3.2861328,1.6162109,4.6113281,2.8886719,1.3242188,1.2724609,2.3759766,2.8349609,3.1533203,4.6904297.7763672,1.8554688,1.1660156,3.9667969,1.1660156,6.3339844Zm-14.4160156,6.2011719c2.1914062,0,3.9482422-.5839844,5.2734375-1.75s1.9873047-2.6494141,1.9873047-4.4511719c0-.8828125-.1767578-1.6962891-.5302734-2.4384766-.3525391-.7421875-.8476562-1.3857422-1.4833984-1.9345703-.6367188-.546875-1.4052734-.9804688-2.3056641-1.2988281-.9013672-.3173828-1.8818359-.4765625-2.9414062-.4765625-2.1904297,0-3.9492188.5830078-5.2734375,1.7490234-1.3251953,1.1660156-1.9882812,2.6328125-1.9882812,4.3994141,0,.8828125.1777344,1.7050781.5302734,2.4638672.3535156.7607422.8486328,1.4130859,1.484375,1.9619141.6357422.546875,1.4042969.9804688,2.3056641,1.2978516.9003906.3173828,1.8808594.4775391,2.9414062.4775391Z"/><path class="cls-1" d="m141.1259766,289.9501063c.0361328,2.0498047.3710938,3.9042969,1.0078125,5.5644531.6357422,1.6621094,1.5898438,2.8623047,2.8613281,3.6044922h16.6953125v8.4794922h-27.8251953v-7.7910156h5.6181641c-1.8720703-.953125-3.3388672-2.1806641-4.3994141-3.6835938-1.0595703-1.5009766-1.6074219-3.0996094-1.6425781-4.7958984v-.8486328c0-.1757812.0185547-.3515625.0527344-.5292969h7.6318359Z"/></g></g><path class="cls-1" d="m205.5425881,60.8339542c-5.5983309,5.784554-12.0360622,8.6770637-19.3136596,8.6770637-4.4176767,0-8.5229641-.9171486-12.316328-2.7523769-3.7947605-1.8338316-7.0909088-4.3064084-9.890307-7.4177302-2.7989327-3.1094596-4.9917093-6.7179971-6.5778642-10.8232845s-2.3789997-8.3972636-2.3789997-12.8759283c0-4.4781992.7928447-8.7380518,2.3789997-12.7823512,1.586155-4.0429027,3.7789315-7.5881243,6.5778642-10.6365959,2.7993982-3.0470749,6.1262733-5.458198,9.9838841-7.2310416,3.8557486-1.7728436,8.0546131-2.6592654,12.5956626-2.6592654,6.3446198,0,11.6631506,1.3221838,15.9551266,3.9656202,4.2919761,2.6443675,7.5252741,6.1434989,9.7036184,10.4964631l-8.0243519,5.7850195c-1.8049671-3.6066752-4.2919761-6.3124963-7.464286-8.1174634-3.1723099-1.8035704-6.6565435-2.7058211-10.4499073-2.7058211-3.1113219,0-5.9409813.6690064-8.4908406,2.006088-2.551256,1.3380127-4.7277381,3.1108563-6.5308429,5.3180652-1.8049671,2.2086055-3.1886044,4.7747594-4.1523088,7.6975304-.965101,2.9246332-1.4460221,5.9717081-1.4460221,9.144018,0,3.358533.5437713,6.5005816,1.6327107,9.4233526,1.0875427,2.9246332,2.5805861,5.4744925,4.4786647,7.6509746,1.8966819,2.1778787,4.1518432,3.9041666,6.7645528,5.1783979,2.612244,1.275628,5.4419035,1.9125109,8.4903751,1.9125109,3.3589985,0,6.5778642-.7770157,9.6570626-2.3324439,3.0791984-1.5540315,6.0177983-4.0121759,8.8171966-7.3707089v-7.0913743h-13.9024829v-7.7440862h22.6731237v33.4959427h-8.7706408v-8.2105749Z"/><path class="cls-1" d="m247.0619515,69.9775066c-3.7947605,0-7.2468706-.6690064-10.3567958-2.006088-3.1108563-1.336616-5.7701217-3.1560154-7.9773305-5.458198-2.2086055-2.3003204-3.9185988-4.9754147-5.1318421-8.0238863-1.2127777-3.0470749-1.8193993-6.2822351-1.8193993-9.7036184,0-3.4204521.6066216-6.6714413,1.8193993-9.7501741,1.2132433-3.0791984,2.9232366-5.7850195,5.1318421-8.1174634,2.2072089-2.3324439,4.8664742-4.1667411,7.9773305-5.5047538,3.1099252-1.3370816,6.5927621-2.006088,10.4499073-2.006088,3.7933638,0,7.2310416.6848353,10.31024,2.0526437,3.0787328,1.3687395,5.7058747,3.1881389,7.884219,5.458198,2.1764821,2.2714558,3.8399196,4.9144267,4.9917093,7.9307748,1.1499274,3.0177448,1.7258223,6.1742257,1.7258223,9.470374,0,.7462889-.0321235,1.4460221-.0931115,2.0991995-.0628503.6531774-.125235,1.1983454-.1866886,1.6327107h-39.0942736c.1866886,2.1783443.7001987,4.1374109,1.5395992,5.878131.839866,1.7421168,1.9274087,3.2509892,3.265887,4.5252205,1.336616,1.275628,2.8603863,2.2556269,4.5717762,2.9390655,1.7099933.6853009,3.4986658,1.0265546,5.3650865,1.0265546,1.3673429,0,2.7202534-.1708597,4.0582661-.5135101,1.3370816-.3407882,2.5661538-.8394005,3.68582-1.4925779s2.1136318-1.4464877,2.9856213-2.3794652c.8701273-.9329776,1.5540315-1.9590666,2.0526437-3.0787328l8.7706408,2.5191325c-1.679732,3.6709222-4.4642324,6.6709757-8.3507078,9.0038852-3.8883376,2.3324439-8.4135581,3.4986658-13.5756614,3.4986658Zm14.8349949-29.017278c-.1862231-2.0526437-.6997332-3.9493256-1.5391336-5.6914424-.839866-1.7407201-1.9129764-3.2188657-3.2193312-4.4321089-1.3058892-1.2127777-2.8310561-2.1606531-4.5717762-2.8454884-1.7421168-.6839042-3.5773451-1.0265546-5.5047538-1.0265546-1.9288054,0-3.7482047.3426504-5.458198,1.0265546-1.7118555.6848353-3.2188657,1.6327107-4.5252205,2.8454884-1.3063548,1.2132433-2.3645674,2.6913888-3.1723099,4.4321089-.8091392,1.7421168-1.3063548,3.6387987-1.4930434,5.6914424h29.4837667Z"/><path class="cls-1" d="m302.3897552,69.9775066c-3.8576108,0-7.3241531-.6853009-10.4033515-2.0526437-3.0787328-1.3673429-5.7072714-3.2030367-7.884219-5.5047538-2.1778787-2.300786-3.8576108-4.9917093-5.038265-8.0709076-1.1825165-3.0791984-1.7728436-6.2980641-1.7728436-9.6570626,0-3.358533.5903271-6.5778642,1.7728436-9.656597,1.1806542-3.0791984,2.8762152-5.768725,5.0848208-8.0709076,2.2072089-2.3003204,4.852042-4.1360143,7.9312403-5.5047538,3.0787328-1.3678084,6.5150139-2.0526437,10.3097744-2.0526437,3.7933638,0,7.2310416.6848353,10.31024,2.0526437,3.0787328,1.3687395,5.7221692,3.2044334,7.9307748,5.5047538,2.2072089,2.3021826,3.9027699,4.9917093,5.0848208,8.0709076,1.1811198,3.0787328,1.7728436,6.2980641,1.7728436,9.656597,0,3.3589985-.5917238,6.5778642-1.7728436,9.6570626-1.1820509,3.0791984-2.8776119,5.7701217-5.0848208,8.0709076-2.2086055,2.3017171-4.852042,4.1374109-7.9307748,5.5047538-3.0791984,1.3673429-6.5168762,2.0526437-10.31024,2.0526437Zm-14.5551948-25.1917907c0,2.3645674.3729117,4.5410494,1.1196662,6.5313084.7462889,1.9911901,1.7728436,3.7174779,3.0787328,5.1783979,1.3063548,1.4618511,2.845954,2.612244,4.6187976,3.4521101s3.6853545,1.2593335,5.7379982,1.2593335,3.9656202-.4194675,5.7379982-1.2593335c1.7728436-.839866,3.3124428-2.006088,4.6187976-3.4991314,1.3063548-1.4925779,2.3324439-3.233298,3.0787328-5.2249536.7467545-1.9897934,1.1196662-4.1662755,1.1196662-6.5313084,0-2.3003204-.3729117-4.4623702-1.1196662-6.4842871-.7462889-2.0205203-1.772378-3.7789315-3.0787328-5.271975-1.3063548-1.4925779-2.845954-2.6587998-4.6187976-3.4986658-1.772378-.839866-3.6853545-1.259799-5.7379982-1.259799-1.9911901,0-3.8720431.4362275-5.6448867,1.3063548-1.7728436.8719895-3.3119772,2.0526437-4.618332,3.5456872-1.3063548,1.4925779-2.3487384,3.2509892-3.1257541,5.2715094-.7784124,2.0219169-1.1662219,4.1839667-1.1662219,6.4847527Z"/><path class="cls-1" d="m338.684165,69.0445291V29.3906552h-6.5313084v-7.9307748h6.5313084v-1.9595322c0-6.0326962,1.3994663-10.7911611,4.198399-14.2753946,2.7989327-3.4828369,6.5922965-5.2249536,11.3828848-5.2249536,1.990259,0,3.9493256.2653679,5.878131.7928447,1.9274087.5293391,3.7631026,1.259799,5.5052194,2.1927766l-2.2393324,7.6509746c-.9329776-.5600659-2.0382114-1.0265546-3.3124428-1.3994663-1.275628-.3733772-2.5047002-.5600659-3.6853545-.5600659-2.426021,0-4.2775438.9027163-5.5517751,2.7058211-1.275628,1.8049671-1.9125109,4.4176767-1.9125109,7.8376632v2.2393324h12.502551v7.9307748h-12.502551v39.6538739h-10.2632187Z"/><path class="cls-1" d="m371.8993764,69.0445291V29.3906552h-6.5313084v-7.9307748h6.5313084v-1.9595322c0-6.0326962,1.3994663-10.7911611,4.198399-14.2753946,2.7989327-3.4828369,6.5922965-5.2249536,11.3828848-5.2249536,1.990259,0,3.9493256.2653679,5.878131.7928447,1.9274087.5293391,3.7631026,1.259799,5.5052194,2.1927766l-2.2393324,7.6509746c-.9329776-.5600659-2.0382114-1.0265546-3.3124428-1.3994663-1.275628-.3733772-2.5047002-.5600659-3.6853545-.5600659-2.426021,0-4.2775438.9027163-5.5517751,2.7058211-1.275628,1.8049671-1.9125109,4.4176767-1.9125109,7.8376632v2.2393324h12.502551v7.9307748h-12.502551v39.6538739h-10.2632187Z"/><path class="cls-1" d="m429.7458471,29.1108551c-3.9814491.125235-7.5108418,1.0423836-10.5895746,2.7523769-3.0791984,1.71139-5.271975,4.1518432-6.5778642,7.3241531v29.857144h-10.2636842V20.2466372h9.5169297v10.9168616c1.679732-3.3589985,3.8720431-6.0489907,6.5778642-8.0709076,2.7058211-2.0205203,5.6127632-3.1257541,8.724085-3.3124428h1.5395992c.4036385,0,.7607212.0321235,1.0726449.0935771v9.2371296Z"/><path class="cls-1" d="m456.898101,69.9775066c-3.7947605,0-7.2468706-.6690064-10.3567958-2.006088-3.1108563-1.336616-5.7701217-3.1560154-7.9773305-5.458198-2.2086055-2.3003204-3.9185988-4.9754147-5.1318421-8.0238863-1.2127777-3.0470749-1.8193993-6.2822351-1.8193993-9.7036184,0-3.4204521.6066216-6.6714413,1.8193993-9.7501741,1.2132433-3.0791984,2.9232366-5.7850195,5.1318421-8.1174634,2.2072089-2.3324439,4.8664742-4.1667411,7.9773305-5.5047538,3.1099252-1.3370816,6.5927621-2.006088,10.4499073-2.006088,3.7933638,0,7.2310416.6848353,10.31024,2.0526437,3.0787328,1.3687395,5.7058747,3.1881389,7.884219,5.458198,2.1764821,2.2714558,3.8399196,4.9144267,4.9917093,7.9307748,1.1499274,3.0177448,1.7258223,6.1742257,1.7258223,9.470374,0,.7462889-.0321235,1.4460221-.0931115,2.0991995-.0628503.6531774-.125235,1.1983454-.1866886,1.6327107h-39.0942736c.1866886,2.1783443.7001987,4.1374109,1.5395992,5.878131.839866,1.7421168,1.9274087,3.2509892,3.265887,4.5252205,1.336616,1.275628,2.8603863,2.2556269,4.5717762,2.9390655,1.7099933.6853009,3.4986658,1.0265546,5.3650865,1.0265546,1.3673429,0,2.7202534-.1708597,4.0582661-.5135101,1.3370816-.3407882,2.5661538-.8394005,3.68582-1.4925779s2.1136318-1.4464877,2.9856213-2.3794652c.8701273-.9329776,1.5540315-1.9590666,2.0526437-3.0787328l8.7706408,2.5191325c-1.679732,3.6709222-4.4642324,6.6709757-8.3507078,9.0038852-3.8883376,2.3324439-8.4135581,3.4986658-13.5756614,3.4986658Zm14.8349949-29.017278c-.1862231-2.0526437-.6997332-3.9493256-1.5391336-5.6914424-.839866-1.7407201-1.9129764-3.2188657-3.2193312-4.4321089-1.3058892-1.2127777-2.8310561-2.1606531-4.5717762-2.8454884-1.7421168-.6839042-3.5773451-1.0265546-5.5047538-1.0265546-1.9288054,0-3.7482047.3426504-5.458198,1.0265546-1.7118555.6848353-3.2188657,1.6327107-4.5252205,2.8454884-1.3063548,1.2132433-2.3645674,2.6913888-3.1723099,4.4321089-.8091392,1.7421168-1.3063548,3.6387987-1.4930434,5.6914424h29.4837667Z"/><path class="cls-1" d="m490.6733783,80.520991c.9329776.1866886,1.8496606.3407882,2.7523769.4664888.9008541.1238383,1.6327107.1866886,2.192311.1866886.8077425,0,1.5074757-.1722563,2.0996651-.5135101.5903271-.3426504,1.1969487-.9488065,1.8193993-1.8193993.6210539-.8715239,1.2593335-2.0991995,1.9125109-3.6853545s1.4143642-3.6243664,2.2858881-6.1113754l-20.0599485-48.7978919h10.5430188l15.1152606,39.747451,13.4355286-39.747451h9.7036184l-22.1125923,60.0876652c-.9958278,2.7989327-2.7221157,5.1462744-5.1783979,7.044353-2.4581445,1.8966819-5.6141598,2.845954-9.470374,2.845954-.7462889,0-1.5251669-.0470213-2.3324439-.1401329-.8091392-.0931115-1.7118555-.2960947-2.7058211-.6066216v-8.9568639Z"/><path class="cls-1" d="m557.6647981,35.4554749c0-3.9800525.714631-7.9456726,2.1462208-11.8963949,1.4301931-3.9493256,3.5293926-7.4950128,6.2980641-10.6365959,2.7668092-3.1401864,6.1416367-5.6756135,10.1230858-7.6044189,3.9800525-1.9269432,8.4908406-2.8920442,13.5291057-2.8920442,6.0326962,0,11.1966618,1.3380127,15.4886379,4.0117104,4.2919761,2.6755599,7.5252741,6.1583968,9.7036184,10.4503728l-8.2110405,5.5047538c-.9329776-1.990259-2.0526437-3.6695255-3.3589985-5.038265-1.3058892-1.3678084-2.7374791-2.4567478-4.2919761-3.265887-1.5554281-.8077425-3.1723099-1.3836374-4.8515764-1.7258223-1.6792665-.3412538-3.2975449-.5135101-4.8515764-.5135101-3.4846991,0-6.5313084.6997332-9.144018,2.0996651-2.612244,1.3994663-4.8050206,3.2509892-6.5778642,5.5513096-1.7728436,2.3021826-3.1108563,4.8836999-4.0121759,7.7440862-.9022507,2.8617829-1.3529106,5.7235659-1.3529106,8.5839522,0,3.2351602.5279424,6.3143586,1.586155,9.2371296,1.0572815,2.9246332,2.5340304,5.5047538,4.4321089,7.7440862,1.8966819,2.2393324,4.1518432,4.0280049,6.7645528,5.3650865,2.612244,1.3384783,5.4726303,2.006088,8.5839522,2.006088,1.6168818,0,3.2803193-.2011209,4.9917093-.6066216,1.7099933-.4036385,3.3589985-1.0568159,4.9451535-1.9590666,1.586155-.9013196,3.0466093-2.0368148,4.3850876-3.4060199,1.3370816-1.3673429,2.4404533-3.0158825,3.3124428-4.9446879l8.6770637,4.9446879c-1.0582126,2.4888713-2.551256,4.6816479-4.4786647,6.5783298-1.9288054,1.8980786-4.1052875,3.4986658-6.5313084,4.8050206-2.4255554,1.3063548-4.9917093,2.3017171-7.6975304,2.9856213s-5.3646209,1.0260891-7.9773305,1.0260891c-4.6648878,0-8.9266026-.9939656-12.7823512-2.9856213-3.8576108-1.9897934-7.1844858-4.5862085-9.9834185-7.7906419-2.7993982-3.2030367-4.977277-6.8418354-6.5313084-10.9163961-1.5558937-4.0736295-2.3329094-8.2254728-2.3329094-12.4559953Z"/><path class="cls-1" d="m646.3023214,69.9775066c-3.8576108,0-7.3241531-.6853009-10.4033515-2.0526437-3.0787328-1.3673429-5.7072714-3.2030367-7.884219-5.5047538-2.1778787-2.300786-3.8576108-4.9917093-5.038265-8.0709076-1.1825165-3.0791984-1.7728436-6.2980641-1.7728436-9.6570626,0-3.358533.5903271-6.5778642,1.7728436-9.656597,1.1806542-3.0791984,2.8762152-5.768725,5.0848208-8.0709076,2.2072089-2.3003204,4.852042-4.1360143,7.9312403-5.5047538,3.0787328-1.3678084,6.5150139-2.0526437,10.3097744-2.0526437,3.7933638,0,7.2310416.6848353,10.31024,2.0526437,3.0787328,1.3687395,5.7221692,3.2044334,7.9307748,5.5047538,2.2072089,2.3021826,3.9027699,4.9917093,5.0848208,8.0709076,1.1811198,3.0787328,1.7728436,6.2980641,1.7728436,9.656597,0,3.3589985-.5917238,6.5778642-1.7728436,9.6570626-1.1820509,3.0791984-2.8776119,5.7701217-5.0848208,8.0709076-2.2086055,2.3017171-4.852042,4.1374109-7.9307748,5.5047538-3.0791984,1.3673429-6.5168762,2.0526437-10.31024,2.0526437Zm-14.5551948-25.1917907c0,2.3645674.3729117,4.5410494,1.1196662,6.5313084.7462889,1.9911901,1.7728436,3.7174779,3.0787328,5.1783979,1.3063548,1.4618511,2.845954,2.612244,4.6187976,3.4521101s3.6853545,1.2593335,5.7379982,1.2593335,3.9656202-.4194675,5.7379982-1.2593335c1.7728436-.839866,3.3124428-2.006088,4.6187976-3.4991314,1.3063548-1.4925779,2.3324439-3.233298,3.0787328-5.2249536.7467545-1.9897934,1.1196662-4.1662755,1.1196662-6.5313084,0-2.3003204-.3729117-4.4623702-1.1196662-6.4842871-.7462889-2.0205203-1.772378-3.7789315-3.0787328-5.271975-1.3063548-1.4925779-2.845954-2.6587998-4.6187976-3.4986658-1.772378-.839866-3.6853545-1.259799-5.7379982-1.259799-1.9911901,0-3.8720431.4362275-5.6448867,1.3063548-1.7728436.8719895-3.3119772,2.0526437-4.618332,3.5456872-1.3063548,1.4925779-2.3487384,3.2509892-3.1257541,5.2715094-.7784124,2.0219169-1.1662219,4.1839667-1.1662219,6.4847527Z"/><path class="cls-1" d="m698.2715921,69.9775066c-3.9190644,0-7.823231-.6382796-11.7097063-1.9125109-3.8883376-1.2742313-7.2310416-3.0936307-10.0304398-5.458198l4.105753-6.5313084c2.922771,2.1150285,5.8152808,3.7174779,8.6770637,4.8050206,2.8603863,1.0889394,5.7850195,1.6327107,8.7706408,1.6327107,3.0466093,0,5.458198-.5903271,7.2310416-1.7728436,1.772378-1.1806542,2.6587998-2.8603863,2.6587998-5.038265,0-2.0526437-.9953623-3.5456872-2.9856213-4.4786647-1.9911901-.9329776-5.1011153-1.9590666-9.3302411-3.0787328-3.0484716-.8077425-5.6607156-1.586155-7.8376632-2.3329094-2.1778787-.7462889-3.9507223-1.6164162-5.3180652-2.612244-1.3692051-.9944312-2.3645674-2.1462208-2.9856213-3.4521101-.6224506-1.3063548-.9329776-2.8925098-.9329776-4.7584649,0-2.4874746.4809211-4.6960801,1.4460221-6.6248855.9637044-1.9274087,2.3003204-3.5601194,4.0121759-4.8981322,1.7099933-1.3370816,3.7160813-2.3473417,6.0177983-3.0326426,2.300786-.6834386,4.7891917-1.0260891,7.464286-1.0260891,3.6695255,0,7.0913743.5596003,10.2636842,1.6792665s6.0019694,2.7379446,8.4903751,4.852042l-4.3850876,6.1579312c-4.541515-3.6066752-9.3623646-5.4116423-14.4620832-5.4116423-2.6127096,0-4.8050206.545168-6.5778642,1.6327107-1.7728436,1.0889394-2.6592654,2.8152272-2.6592654,5.1783979,0,.9958278.1866886,1.8352283.5596003,2.5191325.3733772.6853009.9799989,1.275628,1.8198649,1.7728436.8394005.4986123,1.9269432.9488065,3.2654214,1.3529106,1.336616.4050352,3.0000536.855695,4.9917093,1.3529106,3.2961482.8091392,6.1421022,1.6182784,8.5373964,2.426021,2.3938975.8091392,4.3692587,1.7579457,5.9246868,2.8454884,1.5540315,1.0889394,2.7058211,2.3645674,3.4521101,3.8254873.7462889,1.4623166,1.1196662,3.2188657,1.1196662,5.2715094,0,4.6653533-1.7579457,8.3507078-5.2715094,11.0565289-3.5149603,2.7058211-8.2897197,4.0587317-14.3219504,4.0587317Z"/><path class="cls-1" d="m753.9723075,66.5253966c-1.3063548.6224506-3.1108563,1.3221838-5.4116423,2.0991995-2.3017171.7770157-4.7584649,1.1662219-7.3707089,1.1662219-1.6182784,0-3.1420487-.2183465-4.5722418-.6531774-1.4315898-.4343653-2.6909233-1.0875427-3.778466-1.9590666-1.0889394-.8705928-1.9450999-2.006088-2.5661538-3.4055543-.6224506-1.3994663-.9329776-3.0936307-.9329776-5.0852863v-30.5103214h-6.4377314v-7.9307748h6.4377314V4.1988646h10.2636842v16.0477726h10.6365959v7.9307748h-10.6365959v27.2448999c.1238383,1.7421168.6676097,3.0014502,1.6327107,3.7789315.9637044.7784124,2.1606531,1.1662219,3.5922429,1.1662219,1.4301931,0,2.7989327-.2481422,4.1052875-.7467545,1.3063548-.49675,2.2700592-.9008541,2.8925098-1.2127777l2.1457553,8.1174634Z"/><path class="cls-1" d="m781.9639619,69.9775066c-3.7947605,0-7.2468706-.6690064-10.3567958-2.006088-3.1108563-1.336616-5.7701217-3.1560154-7.9773305-5.458198-2.2086055-2.3003204-3.9185988-4.9754147-5.1318421-8.0238863-1.2127777-3.0470749-1.8193993-6.2822351-1.8193993-9.7036184,0-3.4204521.6066216-6.6714413,1.8193993-9.7501741,1.2132433-3.0791984,2.9232366-5.7850195,5.1318421-8.1174634,2.2072089-2.3324439,4.8664742-4.1667411,7.9773305-5.5047538,3.1099252-1.3370816,6.5927621-2.006088,10.4499073-2.006088,3.7933638,0,7.2310416.6848353,10.31024,2.0526437,3.0787328,1.3687395,5.7058747,3.1881389,7.884219,5.458198,2.1764821,2.2714558,3.8399196,4.9144267,4.9917093,7.9307748,1.1499274,3.0177448,1.7258223,6.1742257,1.7258223,9.470374,0,.7462889-.0321235,1.4460221-.0931115,2.0991995-.0628503.6531774-.125235,1.1983454-.1866886,1.6327107h-39.0942736c.1866886,2.1783443.7001987,4.1374109,1.5395992,5.878131.839866,1.7421168,1.9274087,3.2509892,3.265887,4.5252205,1.336616,1.275628,2.8603863,2.2556269,4.5717762,2.9390655,1.7099933.6853009,3.4986658,1.0265546,5.3650865,1.0265546,1.3673429,0,2.7202534-.1708597,4.0582661-.5135101,1.3370816-.3407882,2.5661538-.8394005,3.68582-1.4925779s2.1136318-1.4464877,2.9856213-2.3794652c.8701273-.9329776,1.5540315-1.9590666,2.0526437-3.0787328l8.7706408,2.5191325c-1.679732,3.6709222-4.4642324,6.6709757-8.3507078,9.0038852-3.8883376,2.3324439-8.4135581,3.4986658-13.5756614,3.4986658Zm14.8349949-29.017278c-.1862231-2.0526437-.6997332-3.9493256-1.5391336-5.6914424-.839866-1.7407201-1.9129764-3.2188657-3.2193312-4.4321089-1.3058892-1.2127777-2.8310561-2.1606531-4.5717762-2.8454884-1.7421168-.6839042-3.5773451-1.0265546-5.5047538-1.0265546-1.9288054,0-3.7482047.3426504-5.458198,1.0265546-1.7118555.6848353-3.2188657,1.6327107-4.5252205,2.8454884-1.3063548,1.2132433-2.3645674,2.6913888-3.1723099,4.4321089-.8091392,1.7421168-1.3063548,3.6387987-1.4930434,5.6914424h29.4837667Z"/></svg>