<?xml version="1.0" encoding="utf-8"?>
<!-- Generator: Adobe Illustrator 27.3.1, SVG Export Plug-In . SVG Version: 6.00 Build 0)  -->
<svg version="1.1" id="Logo" xmlns="http://www.w3.org/2000/svg" xmlns:xlink="http://www.w3.org/1999/xlink" x="0px" y="0px"
	 viewBox="0 0 300 448" style="enable-background:new 0 0 300 448;" xml:space="preserve">
<g>
	<path d="M41.3,402.8c13.9,13.9,30.1,24.8,48.2,32.5c18.7,7.9,38.6,11.9,59,11.9s40.3-4,59-11.9c18.1-7.6,34.3-18.6,48.2-32.5
		c13.9-13.9,24.8-30.1,32.5-48.2c7.9-18.7,11.9-38.6,11.9-59v-9l-71,0v9c0,44.4-36.1,80.5-80.5,80.5c-29.8,0-57-16.4-71.1-42.7
		l-2.5-4.8H0l3.6,11.6c1.5,4.8,3.2,9.6,5.2,14.3C16.5,372.7,27.4,388.9,41.3,402.8z"/>
	<path d="M51.1,259.5C65,273.4,81.2,284.4,99.3,292c18.7,7.9,38.6,11.9,59,11.9c20.4,0,40.3-4,59-11.9c2.2-0.9,4.4-1.9,6.6-3
		l5.1-2.4v-90.4l-15.2,14.5c-15.1,14.3-34.8,22.2-55.5,22.2c-44.4,0-80.5-36.1-80.5-80.5c0-44.4,36.1-80.5,80.5-80.5
		c20.7,0,40.4,7.9,55.5,22.2l15.2,14.5V18.2l-5.1-2.4c-2.2-1-4.4-2-6.6-3c-18.7-7.9-38.6-11.9-59-11.9s-40.3,4-59,11.9
		C81.2,20.4,65,31.3,51.1,45.2C37.2,59.1,26.3,75.3,18.7,93.4c-7.9,18.7-11.9,38.6-11.9,59c0,20.4,4,40.3,11.9,59
		C26.3,229.4,37.2,245.6,51.1,259.5z"/>
</g>
</svg>