<?xml version="1.0" encoding="UTF-8"?><svg id="Calque_1" xmlns="http://www.w3.org/2000/svg" viewBox="0 0 1360 1360"><path d="m680,0C304.4463501,0,0,304.4463501,0,680s304.4463501,680,680,680,680-304.4464111,680-680S1055.5537109,0,680,0Zm-293.0656738,388.5065308c17.0355225-40.276123,41.4069214-76.4318848,72.4372559-107.4627686,31.0303955-31.0303955,67.1861572-55.4014893,107.4630737-72.4370117,41.7397461-17.6548462,86.03302-26.6067505,131.6495361-26.6067505s89.9103394,8.9519043,131.6505737,26.6069946c4.9259033,2.0837402,9.8740234,4.315979,14.7058716,6.6351318l11.3805542,5.4622192v201.6581421l-33.8970947-32.289978c-33.5949097-32.0016479-77.5752563-49.6258545-123.8391113-49.6258545-99.0930176,0-179.7106934,80.6177368-179.7106934,179.7102051,0,99.0927124,80.6176758,179.7104492,179.7098999,179.7104492,46.2646484,0,90.2449951-17.6242065,123.8399048-49.6261597l33.8970947-32.2896729v201.6578979l-11.3797607,5.4619141c-4.8292236,2.3178711-9.7763062,4.550354-14.7050781,6.6356812-41.7423706,17.6553345-86.0358887,26.6067505-131.6513672,26.6067505-45.6160278,0-89.9095459-8.951416-131.6500854-26.6062622-40.2779541-17.0357666-76.4337158-41.4076538-107.463562-72.4379883-31.0290527-31.0283203-55.4004517-67.1837769-72.4370117-107.4614868-17.6547852-41.741333-26.6065063-86.0346069-26.6065063-131.6503296,0-45.616272,8.9517212-89.9103394,26.6065063-131.651123Zm627.7589722,451.3360596c0,45.6176147-8.951416,89.9111328-26.6065063,131.651123-17.0354614,40.2769165-41.4071655,76.4326782-72.4369507,107.4623413-31.0293579,31.029541-67.1851196,55.4006348-107.4628296,72.4372559-41.7407837,17.6547852-86.0340576,26.6066895-131.6503296,26.6066895s-89.9095459-8.9519043-131.6503296-26.6066895c-40.2769165-17.0358887-76.4324341-41.4072266-107.4625244-72.4372559-31.0303345-31.0296631-55.4017334-67.1854248-72.4372559-107.4623413-4.4104614-10.4262695-8.3320312-21.1726074-11.6571045-31.9393311l-8.0227661-25.9797974h166.9199219l5.666687,10.6105957c31.4145508,58.8258057,92.2033691,95.3686523,158.6431274,95.3686523,99.0930176,0,179.7106934-80.6177368,179.7106934-179.7104492v-20.0609131l158.446167-.0005493v20.0606689Z"/></svg>