<?xml version="1.0" encoding="utf-8"?>
<!-- Generator: Adobe Illustrator 27.3.1, SVG Export Plug-In . SVG Version: 6.00 Build 0)  -->
<svg version="1.1" id="Calque_1" xmlns="http://www.w3.org/2000/svg" xmlns:xlink="http://www.w3.org/1999/xlink" x="0px" y="0px"
	 viewBox="0 0 108 108" style="enable-background:new 0 0 108 108;" xml:space="preserve">
<style type="text/css">
	.st0{fill:#000;}
</style>
<g>
	<path class="st0" d="M5.9,38.4c-0.2-0.1-0.3-0.1-0.4-0.2c-0.1-0.1-0.2-0.2-0.3-0.4c-0.1-0.1-0.1-0.3-0.1-0.4c0-0.2,0-0.3,0.1-0.5
		c0.1-0.2,0.1-0.3,0.2-0.4c0.1-0.1,0.2-0.2,0.4-0.3c0.1-0.1,0.3-0.1,0.4-0.1c0.2,0,0.3,0,0.5,0.1c0.2,0.1,0.3,0.1,0.4,0.2
		c0.1,0.1,0.2,0.2,0.3,0.4c0.1,0.1,0.1,0.3,0.1,0.4c0,0.2,0,0.3-0.1,0.5c-0.1,0.2-0.1,0.3-0.2,0.4c-0.1,0.1-0.2,0.2-0.4,0.3
		c-0.1,0.1-0.3,0.1-0.4,0.1C6.2,38.5,6.1,38.5,5.9,38.4z"/>
	<path class="st0" d="M15.5,29.2l-7.4-1.6l0,0c0.1,0.1,0.3,0.2,0.5,0.3c0.2,0.1,0.4,0.2,0.6,0.4c0.2,0.1,0.4,0.3,0.7,0.4l4.2,2.8
		l-0.5,0.7l-6.7-4.4l0.8-1.2l6.9,1.5l0,0l-4.1-5.8l0.8-1.1l6.7,4.4l-0.5,0.8l-4.3-2.8c-0.2-0.1-0.4-0.3-0.6-0.4
		c-0.2-0.1-0.4-0.3-0.6-0.4c-0.2-0.1-0.3-0.2-0.4-0.3l0,0l4.4,6.2L15.5,29.2z"/>
	<path class="st0" d="M22.5,20.7l-3.1,3.2l-5.8-5.5l3.1-3.2l0.6,0.6l-2.4,2.5l1.9,1.8l2.3-2.4l0.6,0.6l-2.3,2.4l2.1,2l2.4-2.5
		L22.5,20.7z"/>
	<path class="st0" d="M20.8,11.7c0.5-0.4,1-0.7,1.4-0.8c0.4-0.1,0.8-0.1,1.2,0s0.7,0.4,1,0.8c0.3,0.3,0.4,0.7,0.5,1
		c0.1,0.3,0,0.6-0.1,0.9c-0.1,0.3-0.2,0.6-0.4,0.8l3.9,1.5l-0.9,0.7L24,15.1l-1.3,1l2,2.6L24,19.4L19.1,13L20.8,11.7z M21.2,12.4
		l-0.9,0.7l1.9,2.4l1-0.8c0.5-0.4,0.8-0.8,0.9-1.2c0.1-0.4,0-0.8-0.4-1.2c-0.3-0.4-0.7-0.6-1.1-0.6C22.2,11.7,21.8,12,21.2,12.4z"/>
	<path class="st0" d="M29.1,7.1c-0.4,0.2-0.7,0.5-0.9,0.8c-0.2,0.3-0.4,0.6-0.5,1c-0.1,0.4-0.1,0.8,0,1.2c0.1,0.4,0.2,0.8,0.5,1.3
		c0.3,0.6,0.7,1,1.1,1.4c0.4,0.3,0.9,0.5,1.4,0.5c0.5,0,1-0.1,1.6-0.4c0.3-0.2,0.6-0.4,0.8-0.6c0.2-0.2,0.5-0.4,0.7-0.6l0.4,0.7
		c-0.2,0.2-0.4,0.5-0.7,0.7c-0.3,0.2-0.6,0.4-1,0.6c-0.7,0.4-1.4,0.6-2,0.5s-1.2-0.2-1.8-0.7s-1-1-1.4-1.7c-0.3-0.5-0.5-1.1-0.6-1.6
		c-0.1-0.5-0.1-1,0-1.5c0.1-0.5,0.3-0.9,0.6-1.3c0.3-0.4,0.7-0.8,1.3-1.1c0.4-0.2,0.7-0.4,1.1-0.5s0.7-0.2,1.1-0.2l0.1,0.9
		c-0.3,0-0.6,0.1-0.9,0.1C29.7,6.8,29.4,7,29.1,7.1z"/>
	<path class="st0" d="M36.1,11.8l-3-7.4L34,4.1l3,7.4L36.1,11.8z"/>
	<path class="st0" d="M49.3,4.2c0.1,0.9,0.1,1.7-0.1,2.3C49,7.2,48.6,7.7,48,8.1c-0.6,0.4-1.3,0.7-2.2,0.8l-2.1,0.4l-1.3-7.9L44.8,1
		c0.8-0.1,1.5-0.1,2.1,0.1c0.6,0.2,1.1,0.6,1.6,1.1C48.9,2.7,49.2,3.4,49.3,4.2z M48.4,4.4c-0.1-0.7-0.3-1.3-0.6-1.7S47,2,46.5,1.9
		c-0.5-0.1-1.1-0.2-1.7-0.1L43.5,2l1,6.3l1.1-0.2C46.7,8,47.5,7.6,47.9,7C48.4,6.3,48.5,5.5,48.4,4.4z"/>
	<path class="st0" d="M56.3,8.2l-4.5,0l0-8l4.5,0l0,0.8l-3.5,0l0,2.6l3.3,0l0,0.8l-3.3,0l0,3l3.5,0L56.3,8.2z"/>
	<path class="st0" d="M70.2,2.6l-4.7,7.1l-0.9-0.2L63.8,1l0.9,0.2l0.5,5.6c0,0.2,0,0.4,0.1,0.6c0,0.2,0,0.4,0,0.6c0,0.2,0,0.4,0,0.5
		c0.1-0.2,0.2-0.3,0.2-0.5c0.1-0.2,0.2-0.3,0.3-0.5C66,7.4,66.1,7.2,66.2,7l3.1-4.6L70.2,2.6z"/>
	<path class="st0" d="M77.4,9.9c-0.2,0.6-0.5,1-0.9,1.4c-0.3,0.4-0.7,0.7-1.2,0.9c-0.4,0.2-0.9,0.3-1.4,0.3c-0.5,0-1-0.1-1.6-0.4
		c-0.6-0.2-1-0.6-1.4-0.9c-0.3-0.4-0.6-0.8-0.7-1.2c-0.1-0.5-0.2-0.9-0.1-1.5c0.1-0.5,0.2-1.1,0.5-1.6c0.3-0.7,0.7-1.4,1.2-1.8
		c0.5-0.5,1.1-0.7,1.7-0.8c0.6-0.1,1.3,0,2.1,0.4C76.4,5,77,5.4,77.3,5.9c0.4,0.5,0.5,1.1,0.6,1.8C77.9,8.4,77.7,9.1,77.4,9.9z
		 M71.6,7.3c-0.3,0.6-0.4,1.2-0.4,1.7c0,0.5,0.1,1,0.4,1.4s0.7,0.7,1.2,1c0.6,0.2,1.1,0.3,1.6,0.2c0.5-0.1,0.9-0.3,1.3-0.7
		c0.4-0.4,0.7-0.9,1-1.5C76.9,8.5,77,7.7,76.9,7c-0.2-0.7-0.7-1.2-1.5-1.6c-0.6-0.2-1.1-0.3-1.6-0.2c-0.5,0.1-0.9,0.3-1.3,0.7
		S71.8,6.7,71.6,7.3z"/>
	<path class="st0" d="M79.4,15.9l-0.8-0.5l3.9-6L80.5,8l0.4-0.7l5,3.2l-0.4,0.7l-2.1-1.4L79.4,15.9z"/>
	<path class="st0" d="M89.5,13.6c0.5,0.4,0.8,0.9,1.1,1.3c0.2,0.4,0.3,0.8,0.2,1.2s-0.3,0.8-0.6,1.2c-0.3,0.3-0.6,0.5-0.9,0.6
		c-0.3,0.1-0.6,0.1-0.9,0.1c-0.3,0-0.6-0.1-0.9-0.2l-0.7,4.1L86,21.1l0.7-3.8l-1.2-1.1l-2.2,2.5l-0.7-0.6l5.3-6L89.5,13.6z
		 M88.9,14.1l-0.9-0.8l-2,2.3l1,0.8c0.5,0.4,0.9,0.7,1.3,0.7c0.4,0,0.8-0.2,1.1-0.6c0.4-0.4,0.5-0.8,0.4-1.2
		C89.7,15,89.4,14.6,88.9,14.1z"/>
	<path class="st0" d="M90.6,26.4l-2.9-3.4l6.1-5.1l2.9,3.4l-0.6,0.5L93.8,19l-2,1.7l2.1,2.5l-0.6,0.5l-2.1-2.5L89,23.1l2.3,2.7
		L90.6,26.4z"/>
	<path class="st0" d="M103.8,33.4l-8.4,0.9L95,33.5l5.9-6.1l0.4,0.9l-3.9,4c-0.2,0.2-0.3,0.3-0.5,0.5c-0.1,0.1-0.3,0.3-0.4,0.4
		c-0.1,0.1-0.3,0.2-0.4,0.3c0.2,0,0.3-0.1,0.5-0.1c0.2,0,0.4-0.1,0.6-0.1c0.2,0,0.4-0.1,0.6-0.1l5.5-0.6L103.8,33.4z"/>
	<path class="st0" d="M97,38.2l7.5-2.7l0.3,0.9l-7.5,2.7L97,38.2z"/>
	<path class="st0" d="M101.2,45.3c-0.5,0.1-0.9,0.1-1.3-0.1c-0.4-0.2-0.7-0.4-1-0.8c-0.3-0.4-0.5-0.8-0.6-1.4
		c-0.1-0.3-0.1-0.6-0.2-0.8c0-0.3-0.1-0.5-0.1-0.8c0-0.2,0-0.4,0.1-0.6l0.9-0.2c0,0.3-0.1,0.6-0.1,1c0,0.4,0,0.8,0.1,1.2
		c0.1,0.4,0.2,0.7,0.4,1c0.2,0.2,0.4,0.4,0.6,0.5c0.2,0.1,0.5,0.1,0.8,0c0.3-0.1,0.5-0.2,0.6-0.3c0.2-0.2,0.3-0.4,0.3-0.7
		c0.1-0.3,0.1-0.7,0.2-1.2c0-0.4,0.1-0.7,0.2-1c0.1-0.3,0.2-0.5,0.3-0.7s0.3-0.4,0.5-0.5c0.2-0.1,0.5-0.3,0.8-0.3
		c0.4-0.1,0.8-0.1,1.1,0.1c0.3,0.1,0.6,0.4,0.9,0.7c0.2,0.3,0.4,0.7,0.5,1.2c0.1,0.4,0.2,0.8,0.2,1.2s0,0.7-0.1,1l-0.8-0.1
		c0.1-0.3,0.1-0.6,0.1-1c0-0.3,0-0.7-0.1-1c-0.1-0.3-0.2-0.6-0.3-0.8s-0.3-0.3-0.5-0.4c-0.2-0.1-0.4-0.1-0.7,0
		c-0.3,0.1-0.5,0.2-0.6,0.3c-0.2,0.2-0.3,0.4-0.3,0.7c-0.1,0.3-0.1,0.7-0.2,1.1c-0.1,0.5-0.1,0.9-0.2,1.3s-0.3,0.7-0.5,0.9
		S101.7,45.2,101.2,45.3z"/>
	<path class="st0" d="M99.4,47.7l7.9-1l0.1,0.9l-7.9,1L99.4,47.7z"/>
	<path class="st0" d="M99.8,53.5l0-0.9l7.2-0.1l-0.1-2.5l0.8,0l0.1,6l-0.8,0l-0.1-2.5L99.8,53.5z"/>
	<path class="st0" d="M99.2,61.8l0.5-4.4l7.9,1l-0.5,4.4l-0.8-0.1l0.4-3.5l-2.6-0.3l-0.4,3.3l-0.8-0.1l0.4-3.3l-2.9-0.4l-0.4,3.5
		L99.2,61.8z"/>
	<path class="st0" d="M102.4,68.7c0.2,0.1,0.3,0.1,0.4,0.2c0.1,0.1,0.2,0.2,0.3,0.4c0.1,0.1,0.1,0.3,0.1,0.4c0,0.2,0,0.3-0.1,0.5
		c-0.1,0.2-0.1,0.3-0.2,0.4s-0.2,0.2-0.4,0.3c-0.1,0.1-0.3,0.1-0.4,0.1c-0.2,0-0.3,0-0.5-0.1c-0.2,0-0.3-0.1-0.4-0.2
		c-0.1-0.1-0.2-0.2-0.3-0.4s-0.1-0.3-0.1-0.4c0-0.2,0-0.3,0.1-0.5c0.1-0.2,0.1-0.3,0.2-0.4c0.1-0.1,0.2-0.2,0.4-0.3
		c0.1-0.1,0.3-0.1,0.4-0.1S102.3,68.7,102.4,68.7z"/>
	<path class="st0" d="M93,78.1l7.4,1.5l0,0c-0.1-0.1-0.3-0.2-0.5-0.3s-0.4-0.2-0.6-0.4s-0.4-0.3-0.7-0.4l-4.3-2.7l0.5-0.7l6.8,4.3
		l-0.7,1.2l-7-1.4l0,0l4.2,5.7l-0.7,1.2l-6.8-4.3l0.5-0.8l4.3,2.7c0.2,0.1,0.4,0.3,0.6,0.4s0.4,0.3,0.6,0.4c0.2,0.1,0.3,0.2,0.5,0.3
		l0,0l-4.5-6.1L93,78.1z"/>
	<path class="st0" d="M86.1,86.8l3-3.3l5.9,5.4l-3,3.3l-0.6-0.6l2.4-2.6l-1.9-1.8l-2.2,2.4l-0.6-0.5l2.2-2.4l-2.2-2l-2.4,2.6
		L86.1,86.8z"/>
	<path class="st0" d="M88.1,95.7c-0.5,0.4-1,0.7-1.4,0.8c-0.4,0.1-0.8,0.2-1.2,0c-0.4-0.1-0.7-0.4-1-0.8c-0.3-0.3-0.4-0.7-0.5-1
		c-0.1-0.3,0-0.6,0-0.9c0.1-0.3,0.2-0.6,0.4-0.8l-4-1.4l0.8-0.7l3.6,1.4l1.3-1L84,88.7l0.7-0.6l5,6.2L88.1,95.7z M87.6,95l0.9-0.7
		l-1.9-2.4l-1,0.8c-0.5,0.4-0.8,0.8-0.9,1.2c-0.1,0.4,0.1,0.8,0.4,1.2c0.3,0.4,0.7,0.6,1.1,0.6C86.6,95.7,87.1,95.4,87.6,95z"/>
	<path class="st0" d="M79.9,100.4c0.4-0.2,0.7-0.5,0.9-0.8c0.2-0.3,0.4-0.6,0.4-1c0.1-0.4,0.1-0.8,0-1.2s-0.3-0.8-0.5-1.3
		c-0.3-0.6-0.7-1-1.1-1.4c-0.4-0.3-0.9-0.5-1.4-0.5c-0.5,0-1,0.1-1.6,0.4c-0.3,0.2-0.6,0.4-0.8,0.6c-0.2,0.2-0.5,0.4-0.7,0.7
		l-0.4-0.7c0.2-0.2,0.4-0.5,0.7-0.7s0.6-0.4,0.9-0.6c0.7-0.4,1.4-0.6,2-0.6c0.6,0,1.2,0.2,1.8,0.6c0.5,0.4,1,1,1.4,1.7
		c0.3,0.5,0.5,1,0.6,1.6c0.1,0.5,0.1,1,0,1.5c-0.1,0.5-0.3,0.9-0.6,1.3c-0.3,0.4-0.7,0.8-1.3,1.1c-0.4,0.2-0.7,0.4-1.1,0.5
		c-0.4,0.1-0.7,0.2-1.1,0.2l-0.1-0.9c0.3,0,0.6-0.1,0.9-0.2C79.2,100.7,79.5,100.6,79.9,100.4z"/>
	<path class="st0" d="M72.7,95.8l3.2,7.3l-0.9,0.4l-3.2-7.3L72.7,95.8z"/>
	<path class="st0" d="M59.7,103.7c-0.2-0.9-0.1-1.7,0.1-2.3c0.2-0.7,0.6-1.2,1.2-1.6c0.6-0.4,1.3-0.7,2.1-0.9l2.1-0.4l1.4,7.9
		l-2.4,0.4c-0.8,0.1-1.5,0.1-2.1-0.1s-1.2-0.5-1.6-1.1C60.1,105.2,59.8,104.6,59.7,103.7z M60.6,103.5c0.1,0.7,0.4,1.3,0.7,1.7
		c0.3,0.4,0.7,0.7,1.2,0.8c0.5,0.1,1.1,0.2,1.7,0l1.3-0.2l-1.2-6.3l-1.1,0.2c-1.1,0.2-1.8,0.6-2.3,1.2
		C60.6,101.6,60.4,102.4,60.6,103.5z"/>
	<path class="st0" d="M52.6,99.9l4.5-0.1l0.2,8l-4.5,0.1l0-0.8l3.5-0.1l-0.1-2.6l-3.3,0.1l0-0.8l3.3-0.1l-0.1-3l-3.5,0.1L52.6,99.9z
		"/>
	<path class="st0" d="M38.8,105.7l4.6-7.2l0.9,0.2l1,8.4l-0.9-0.2l-0.6-5.6c0-0.2,0-0.4-0.1-0.6c0-0.2,0-0.4,0-0.6
		c0-0.2,0-0.4,0-0.5c-0.1,0.2-0.2,0.3-0.2,0.5c-0.1,0.2-0.2,0.3-0.3,0.5c-0.1,0.2-0.2,0.4-0.3,0.6l-3,4.7L38.8,105.7z"/>
	<path class="st0" d="M31.5,98.6c0.2-0.6,0.5-1.1,0.9-1.5c0.3-0.4,0.7-0.7,1.1-0.9c0.4-0.2,0.9-0.3,1.4-0.3s1,0.1,1.6,0.3
		c0.6,0.2,1,0.5,1.4,0.9c0.4,0.4,0.6,0.8,0.7,1.2c0.1,0.5,0.2,0.9,0.1,1.5c-0.1,0.5-0.2,1.1-0.4,1.6c-0.3,0.8-0.7,1.4-1.2,1.8
		c-0.5,0.5-1,0.8-1.7,0.9c-0.6,0.1-1.3,0-2.1-0.3c-0.7-0.3-1.3-0.7-1.7-1.2c-0.4-0.5-0.6-1.1-0.6-1.8C31,100.1,31.2,99.4,31.5,98.6z
		 M37.4,101.1c0.3-0.6,0.4-1.2,0.4-1.7s-0.1-1-0.4-1.4c-0.3-0.4-0.7-0.7-1.3-1c-0.6-0.2-1.1-0.3-1.6-0.2c-0.5,0.1-0.9,0.3-1.3,0.7
		c-0.4,0.4-0.7,0.9-0.9,1.5c-0.4,1-0.5,1.8-0.3,2.5c0.2,0.7,0.7,1.2,1.5,1.6c0.6,0.2,1.1,0.3,1.6,0.2c0.5-0.1,0.9-0.3,1.3-0.7
		C36.8,102.2,37.1,101.7,37.4,101.1z"/>
	<path class="st0" d="M29.3,92.6l0.8,0.5l-3.8,6.1l2.1,1.3l-0.4,0.7l-5-3.2l0.4-0.7l2.1,1.3L29.3,92.6z"/>
	<path class="st0" d="M19.3,95.2c-0.5-0.4-0.9-0.8-1.1-1.2c-0.2-0.4-0.3-0.8-0.3-1.2c0.1-0.4,0.2-0.8,0.6-1.2
		c0.3-0.3,0.6-0.5,0.9-0.7c0.3-0.1,0.6-0.2,0.9-0.1c0.3,0,0.6,0.1,0.9,0.2l0.7-4.2l0.8,0.7L22,91.3l1.3,1.1l2.2-2.5l0.7,0.6L21,96.6
		L19.3,95.2z M19.9,94.6l0.9,0.8l2-2.3l-1-0.8c-0.5-0.4-0.9-0.6-1.4-0.6c-0.4,0-0.8,0.2-1.1,0.6C19,92.6,18.9,93,19,93.3
		C19.1,93.7,19.4,94.1,19.9,94.6z"/>
	<path class="st0" d="M18,82.4l2.9,3.4l-6,5.3l-2.9-3.4l0.6-0.5l2.3,2.7l1.9-1.7l-2.2-2.5l0.6-0.5l2.2,2.5l2.2-1.9l-2.3-2.7L18,82.4
		z"/>
	<path class="st0" d="M4.6,75.6l8.4-1.1l0.4,0.8l-5.8,6.2l-0.4-0.9l3.8-4.1c0.2-0.2,0.3-0.3,0.4-0.5c0.1-0.1,0.3-0.3,0.4-0.4
		c0.1-0.1,0.3-0.2,0.4-0.3c-0.2,0-0.3,0.1-0.5,0.1c-0.2,0-0.4,0.1-0.6,0.1c-0.2,0-0.4,0.1-0.6,0.1l-5.5,0.7L4.6,75.6z"/>
	<path class="st0" d="M11.3,70.6l-7.5,2.8l-0.3-0.9l7.5-2.8L11.3,70.6z"/>
	<path class="st0" d="M7,63.6c0.5-0.1,0.9-0.1,1.3,0c0.4,0.1,0.7,0.4,1,0.8c0.3,0.4,0.5,0.8,0.6,1.4c0.1,0.3,0.1,0.6,0.2,0.8
		c0,0.3,0.1,0.5,0.1,0.8c0,0.2,0,0.4,0,0.6l-0.9,0.2c0-0.3,0.1-0.6,0.1-1c0-0.4-0.1-0.8-0.2-1.2C9,65.6,8.8,65.3,8.7,65
		c-0.2-0.2-0.4-0.4-0.6-0.5c-0.2-0.1-0.5-0.1-0.8,0c-0.3,0.1-0.5,0.2-0.6,0.3c-0.1,0.2-0.3,0.4-0.3,0.7c-0.1,0.3-0.1,0.7-0.2,1.2
		c0,0.4-0.1,0.7-0.2,1c-0.1,0.3-0.2,0.5-0.3,0.8c-0.1,0.2-0.3,0.4-0.5,0.5c-0.2,0.1-0.5,0.3-0.8,0.3c-0.4,0.1-0.8,0.1-1.1,0
		c-0.4-0.1-0.7-0.4-0.9-0.7c-0.3-0.3-0.4-0.7-0.6-1.2c-0.1-0.4-0.2-0.8-0.2-1.2c0-0.4,0-0.7,0.1-1l0.8,0.1c0,0.3-0.1,0.6-0.1,1
		c0,0.3,0,0.7,0.1,1C2.7,67.6,2.8,67.8,3,68s0.3,0.3,0.5,0.4c0.2,0.1,0.4,0.1,0.7,0c0.3-0.1,0.5-0.2,0.6-0.3C5,68,5.1,67.7,5.1,67.4
		c0.1-0.3,0.1-0.7,0.2-1.1c0-0.5,0.1-0.9,0.2-1.3c0.1-0.4,0.3-0.7,0.5-0.9C6.3,63.9,6.6,63.7,7,63.6z"/>
	<path class="st0" d="M8.8,61.2l-7.9,1.2l-0.1-0.9l7.9-1.2L8.8,61.2z"/>
	<path class="st0" d="M8.2,55.4l0,0.9l-7.2,0.3l0.1,2.5l-0.8,0l-0.2-6l0.8,0l0.1,2.5L8.2,55.4z"/>
	<path class="st0" d="M8.7,47.1l-0.4,4.4l-8-0.8l0.4-4.4l0.8,0.1l-0.4,3.5l2.6,0.3l0.3-3.3l0.8,0.1l-0.3,3.3l2.9,0.3L7.9,47
		L8.7,47.1z"/>
</g>
</svg>
