<svg xmlns="http://www.w3.org/2000/svg" version="1.1" xmlnsXlink="http://www.w3.org/1999/xlink" xmlnsSvgjs="http://svgjs.dev/svgjs" viewBox="0 0 800 800"><defs><linearGradient x1="50%" y1="0%" x2="50%" y2="100%" id="uundulate-grad"><stop stop-color="hsl(158, 100%, 82%)" stop-opacity="1" offset="45%"></stop><stop stop-color="hsl(0, 0%, 100%)" stop-opacity="1" offset="100%"></stop></linearGradient></defs><g stroke-width="2" stroke="url(#uundulate-grad)" fill="none"><path d="M651.8030442152578 167.01964066277986C691.999735931546 242.12183845377035 677.4430310350904 465.5203320407661 627.4835681359127 566.0593463177318C577.5241052367353 666.5983605946974 477.826056530703 673.1274850614351 411.9976222992058 649.6069091922157C346.16918806770855 626.0863333229961 371.28960292749787 518.666795163197 311.5070838247261 453.1605821454781C251.72456472195438 387.6543691277592 122.34408441391355 379.43742072748546 125.04153060590147 335.17708670716513C127.73897679788939 290.91675268684475 259.976092777138 267.712705886729 324.4548255462688 240.71097884793983C388.9335583153995 213.70925180915071 366.34190234169046 220.92115904288528 434.5394478977297 205.5687969209771C502.73699345376906 190.21643479906885 611.6063524989697 91.91744287178943 651.8030442152578 167.01964066277986C691.999735931546 242.12183845377035 677.4430310350904 465.5203320407661 627.4835681359127 566.0593463177318 "></path><path d="M640.3574221659669 177.6096736422416C678.7269915315147 249.2981351700052 664.8319550394434 462.54215177577385 617.1433768175013 558.5112108583321C569.4547985955592 654.4802699408901 474.2884793761647 660.712616022776 411.45224670064454 638.261157238521C348.6160140251245 615.8096984542661 372.5945918458325 513.2728665744579 315.5294599750049 450.74420869390804C258.46432810417735 388.21555081335816 134.96477871922923 380.37210006764235 137.53961372067226 338.12359941188197C140.1144487221153 295.8750987561217 266.3407867023071 273.72578135601117 327.88866798193203 247.9514055462579C389.4365492615568 222.1770297365046 367.8717867411981 229.06112300506948 432.9694438628719 214.40659552506617C498.06710098454596 199.75206804506286 601.9878528004192 105.92121211447801 640.3574221659669 177.6096736422416C678.7269915315147 249.2981351700052 664.8319550394434 462.54215177577385 617.1433768175013 558.5112108583321 "></path><path d="M628.9118306342542 188.19967610412516C665.4542776490616 256.4744013686619 652.2209095613747 459.5639409932036 606.8032160166679 550.9630448813541C561.3855224719609 642.3621487695048 470.7509327392045 648.297716466539 410.90690161966154 626.9153747672485C351.0628705001185 605.5330330679581 373.89961128174514 507.8789074681407 319.5518666428618 448.32780472475997C265.20412200397845 388.7767019813791 147.5855035421231 381.3067488902211 150.03772735302124 341.0700815990208C152.48995116391933 300.8334143078205 272.7055111450544 279.73882630771527 331.3225409351734 255.19180172699782C389.93957072529224 230.64477714628043 369.40170165828386 237.20105644967555 431.39947034559236 223.24436361157717C493.39723903290087 209.2876707734788 592.3693836194468 119.9249508395884 628.9118306342542 188.19967610412516C665.4542776490616 256.4744013686619 652.2209095613747 459.5639409932036 606.8032160166679 550.9630448813541 "></path><path d="M617.4662543613306 198.78967856600877C652.1815790253976 263.6506675673187 639.609879342095 456.5857302106333 596.4630704746236 543.4148789043763C553.316261607152 630.2440275981194 467.2134013610332 635.8828169103019 410.3615717974675 615.569592295976C353.50974223390165 595.2563676816501 375.20464597644695 502.4849483618236 323.57428856950776 445.9114007556118C271.94393116256856 389.33785314939996 160.20624362380602 382.2413977127999 162.53585624415922 344.0165637861596C164.86546886451242 305.79172985951936 279.07025084659074 285.7518712594193 334.7564291472038 262.4321979077378C390.4426074478167 239.11252455605626 370.9316318341588 245.34098989428156 429.8295120871019 232.08213169808812C488.72739234004484 218.82327350189468 582.7509296972635 133.92868956469886 617.4662543613306 198.78967856600877C652.1815790253976 263.6506675673187 639.609879342095 456.5857302106333 596.4630704746236 543.4148789043763 "></path><path d="M606.020678088407 209.37971154547046C638.9088804017335 270.8269642835536 626.9988491228153 453.60754994564104 586.1229249325793 535.8667434449765C545.2470007423431 618.125936944312 463.6758699828622 623.4679478716428 409.81624197527344 604.2238403422814C355.9566139676848 584.97973281292 376.5096806711488 497.09101977308444 327.5967104961538 443.49502730404174C278.6837403211587 389.89903483499893 172.82698370548894 383.17607705295677 175.0339851352972 346.9630764908766C177.24098656510552 310.75007592879626 285.4349905481271 291.76494672870155 338.19031735923414 269.6726246060559C390.9456441703412 247.5803024834102 372.4615620100336 253.48095385646576 428.2595538286113 240.91993030217725C484.0575456471888 228.35890674788874 573.1324757750803 147.93245880738738 606.020678088407 209.37971154547046C638.9088804017335 270.8269642835536 626.9988491228153 453.60754994564104 586.1229249325793 535.8667434449765 "></path><path d="M594.5750560391161 219.9697445249322C625.6361360017024 278.00326099978844 614.3877731271684 450.6293696806488 575.7827336141677 528.3186079855768C537.1776941011669 606.0078462905049 460.13829282832376 611.0530788329838 409.2708663767123 592.878088388587C358.40343992510077 574.7030979441902 377.8146695894834 491.69709118434537 331.61908664643255 441.0786538524717C285.4235037033817 390.460216520598 185.44767801080462 384.1107563931138 187.53206825006805 349.9095891955935C189.61645848933142 315.7084219980732 291.7996844732963 297.7780221979838 341.6241597948973 276.913051304374C391.4486351164984 256.04808041076416 373.99144640954137 261.62091781864996 426.6895497937535 249.75772890626638C479.3876531779657 237.89453999388274 563.5139760765298 161.93622805007595 594.5750560391161 219.9697445249322C625.6361360017024 278.00326099978844 614.3877731271684 450.6293696806488 575.7827336141677 528.3186079855768 "></path><path d="M583.1295408013486 230.55974698681575C612.3634984131946 285.17952719844516 601.776803943045 447.6511588980785 565.4426491072795 520.7704420085989C529.1084942715141 593.8897251191194 456.60082248530887 598.6381792767468 408.7255975896745 581.5323059173145C360.8503726940402 564.4264325578821 379.11976531934147 486.30313207802817 335.64156960823476 438.6622498833235C292.16337389712805 391.02136768861897 198.0684791276438 385.04540521569254 200.03025817636228 352.8560713827323C201.99203722508076 320.66673754977205 298.1644852099888 303.7910671496878 345.05810904208397 284.15344748511393C391.95173287417913 264.51582782054 375.52143762057244 269.76085126325603 425.11965257041925 258.5954969927773C474.71786752026605 247.43014272229868 553.8955831895028 175.93996677518635 583.1295408013486 230.55974698681575C612.3634984131946 285.17952719844516 601.776803943045 447.6511588980785 565.4426491072795 520.7704420085989 "></path><path d="M571.6839492696361 241.1497799662775C599.0907845307415 292.35582391468006 589.1657584649763 444.67297863308625 555.1024883064463 513.2223065491992C521.0392181479161 581.7716344653122 453.06327584834867 586.2233102380878 408.1802525086914 570.1865539636201C363.2972291690342 554.1497976891521 380.4247847552542 480.9092034892892 339.66397627609166 436.2458764317536C298.9031677969291 391.58254937421793 210.68920395053766 385.98008455584954 212.5283718087112 355.8025840874492C214.3675396668848 325.62508361904895 304.52920965273614 309.80414261897005 348.4919819953253 291.393874183432C392.45475433791444 272.98360574789393 377.0513525376582 277.9008152254402 423.5496790531396 267.43329559686646C470.04800556862097 256.9657759682927 544.2771140085305 189.94373601787493 571.6839492696361 241.1497799662775C599.0907845307415 292.35582391468006 589.1657584649763 444.67297863308625 555.1024883064463 513.2223065491992 "></path><path d="M560.238296702767 251.739767169372C585.8180096131322 299.5320748545478 576.5546519517513 441.6947525917269 544.7622664704566 505.67412531343234C512.9698809891618 569.6534980351378 449.5256681762322 573.8083954230617 407.63484639255216 558.8407562335583C365.74402460887205 543.8731170440551 381.7297431560107 475.51522912418295 343.68632190879237 433.82945720381633C305.64290066157395 392.1436852834497 223.30986773827522 386.9147181196392 225.02642440590392 358.74905101579895C226.74298107353258 330.5833839119588 310.89387306032717 315.8171723118851 351.9257939134104 298.63425510538286C392.9577147664936 281.4513378988807 378.5812064195877 286.04073341125724 421.97964450070367 276.2710484245884C465.3780825818196 266.5013634379195 534.6585837924019 203.94745948419626 560.238296702767 251.739767169372C585.8180096131322 299.5320748545478 576.5546519517513 441.6947525917269 544.7622664704566 505.67412531343234 "></path><path d="M548.7926746534762 262.3298001488337C572.545265213101 306.7083715707826 563.9435759561045 438.71657232673465 534.422075152045 498.1259898540326C504.90057434798564 557.5354073813304 445.9880910216939 561.3935263844027 407.0894707939909 547.4950042798639C368.19085056628796 533.596482175325 383.03473207434536 470.12130053544377 347.70869805907114 431.4130837522463C312.3826640437969 392.70486696904874 235.93056204359095 387.8493974597961 237.52450752067472 361.6955637205159C239.11845299775848 335.5417299812357 317.2585669854963 321.83024778116726 355.35963634907364 305.8746818037009C393.4607057126509 289.91911582623464 380.11109081909547 294.18069737344143 420.409640465846 285.1088470286775C460.7081901125965 276.03699668391357 525.0400840938514 217.95122872688484 548.7926746534762 262.3298001488337C572.545265213101 306.7083715707826 563.9435759561045 438.71657232673465 534.422075152045 498.1259898540326 "></path><path d="M537.3470983805526 272.9198026107173C559.272566589437 313.88463776943934 551.3325457368248 435.7383615441644 524.0819296100008 490.5778238770547C496.8313134831766 545.417286209945 442.45055964352264 548.9786268281656 406.5441409717969 536.1492218085914C370.6377223000711 523.3198167890171 384.3397667690472 464.7273414291267 351.7311199857171 428.9966797830981C319.122473202387 393.26601813706964 248.55130212527388 388.7840462823749 250.02263641181275 364.6420459076547C251.49397069835157 340.5000455329345 323.62330668703265 327.84329273287136 358.793524561104 313.1150779844409C393.96374243517533 298.38686323601047 381.6410209949703 302.3206308180475 418.8396822073554 293.9466151151885C456.0383434197405 285.57259941232945 515.4216301716681 231.95496745199523 537.3470983805526 272.9198026107173C559.272566589437 313.88463776943934 551.3325457368248 435.7383615441644 524.0819296100008 490.5778238770547 "></path><path d="M525.9015221076289 283.509835590179C545.999867965773 321.06093448567424 538.7215155175452 432.7601812791721 513.7417840679564 483.02968841765494C488.76205261836765 533.2991955561378 438.9130282653515 536.5637577895066 405.9988111496029 524.8034698548969C373.0845940338543 513.0431819202871 385.64480146374893 459.3334128403876 355.75354191236306 426.58030633152816C325.8622823609772 393.82719982266866 261.17204220695675 389.7187256225318 262.52076530295074 367.5885586123716C263.86948839894467 345.45839160221146 329.988046388569 333.8563682021536 362.2274127731344 320.355504682759C394.46677915769976 306.8546411633644 383.1709511708452 310.4605947802317 417.26972394886485 302.7844137192776C451.3684967268846 295.1082326583235 505.80317624948486 245.9587366946838 525.9015221076289 283.509835590179C545.999867965773 321.06093448567424 538.7215155175452 432.7601812791721 513.7417840679564 483.02968841765494 "></path><path d="M514.4559458347053 294.0998380520626C532.7271693421089 328.23720068433096 526.1104852982655 429.7819704966018 503.40163852591206 475.48152244067705C480.6927917535586 521.1810743847524 435.37549688718036 524.1488582332695 405.4534813274089 513.4576873836243C375.53146576763737 502.76651653397903 386.9498361584507 453.9394537340704 359.775963839009 424.16390236238C332.60209151956735 394.38835099068956 273.79278228863967 390.65337444511056 275.0188941940887 370.5350407995104C276.2450060995378 350.41670715391024 336.3527860901053 339.86941315385764 365.6613009851648 327.5959008634989C394.96981588022425 315.32238857314024 384.70088134672005 318.6005282248378 415.6997656903743 311.62218180578856C446.69865003402856 304.6438353867394 496.18472232730153 259.9624754197942 514.4559458347053 294.0998380520626C532.7271693421089 328.23720068433096 526.1104852982655 429.7819704966018 503.40163852591206 475.48152244067705 "></path><path d="M503.0103390442034 304.6898405139462C519.4544402008668 335.41346688298773 513.4994245614076 426.80375971403146 493.06146246628964 467.93335646369917C472.62350037117153 509.0629532133669 431.8379349914311 511.7339586770323 404.9081209876367 502.11190491235163C377.9783069838424 492.48985114767095 388.2548403355744 448.54549462775316 363.79835524807686 421.7474983932318C339.34187016057933 394.9495021587104 286.41349185274447 391.5880232676893 287.51699256764863 373.4815229866492C288.6204932825528 355.37502270560907 342.71749527406354 345.8824581055617 369.09515867961704 334.8362970442389C395.4728220851706 323.790135982916 386.2307810050168 326.74046166944385 414.12977691430564 320.45994989229956C442.0287728235944 314.1794381151553 486.5662378875402 273.96621414490465 503.0103390442034 304.6898405139462C519.4544402008668 335.41346688298773 513.4994245614076 426.80375971403146 493.06146246628964 467.93335646369917 "></path><path d="M491.5647475124907 315.2798734934079C506.18172631841367 342.5897635992226 500.8883790833389 423.82557944903925 482.72130166545617 460.38522100429947C464.5542242475735 496.9448625595596 428.30038835447084 499.3190896383734 404.36277590665367 490.76615295865724C380.4251634588365 482.213216278941 389.55985977148714 443.1515660390141 367.82076191593376 419.33112494166176C346.08166406038043 395.5106838443095 299.0342166756383 392.52270260784627 300.01510619999755 376.4280356913662C300.9959957243568 360.333368774886 349.0822197168108 351.8955335748439 372.5290316328584 342.07672374255696C395.97584354890597 332.25791391026996 387.7606959221026 334.880425631628 412.55980339702603 329.2977484963887C437.35891087194943 323.71507136114934 476.9477687065678 287.9699833875932 491.5647475124907 315.2798734934079C506.18172631841367 342.5897635992226 500.8883790833389 423.82557944903925 482.72130166545617 460.38522100429947 "></path><path d="M480.11914072198897 325.8699064728696C492.9089971771716 349.7660603154575 488.27731834648114 420.84739918404705 472.38112560583374 452.83708554489976C456.48493286518635 484.8267719057525 424.7628264587216 486.90422059971445 403.81741556688155 479.42040100496274C382.87200467504147 471.93658141021115 390.86486394861083 437.75763745027507 371.84315332500165 416.91475149009176C352.82144270139247 396.07186552990845 311.6549262397431 393.4573819480032 312.5132045735574 379.37454839608307C313.3714829073718 365.291714844163 355.4469289007691 357.90860904412614 375.9628893273107 349.317150440875C396.4788497538523 340.7256918376239 389.2905955803993 343.0203895938122 410.9898146209573 338.13554710047777C432.6890336615153 333.25070460714335 467.32928426680644 301.97375263028175 480.11914072198897 325.8699064728696C492.9089971771716 349.7660603154575 488.27731834648114 420.84739918404705 472.38112560583374 452.83708554489976 "></path><path d="M468.6735491902763 336.4598936759641C479.6362832947185 356.94231125532514 475.6662728684124 417.86917314268766 462.0409648050004 445.2889043091328C448.4156567415883 472.708635475578 421.2252798217613 474.48930578468827 403.27207048589844 468.07460327490116C385.31886115003556 461.659900765114 392.1698833845236 432.3636630851688 375.86555999285855 414.4983322621545C359.5612366011935 396.6330014391403 324.27565106263694 394.3920155117929 325.0113182059064 382.3210153244328C325.7469853491758 370.2500151370727 361.81165334351635 363.9216387370411 379.396762280552 356.5575313628259C396.9818712175877 349.1934239886107 390.82051049748515 351.1603077796292 409.4198411036777 346.9732999281997C428.01917170987025 342.7862920767702 457.71081508583404 315.9774760966031 468.6735491902763 336.4598936759641C479.6362832947185 356.94231125532514 475.6662728684124 417.86917314268766 462.0409648050004 445.2889043091328 "></path><path d="M457.2279576585636 347.04992665542585C466.3635694122654 364.11860797156004 463.0552273903437 414.89099287769545 451.70080400416697 437.74076884973306C440.34638061799023 460.5905448217707 417.6877331848011 462.0744367460293 402.7267254049154 456.72885132120666C387.76571762502965 451.38326589638405 393.4749028204363 426.96973449642974 379.88796666071545 412.0819588105845C366.3010305009946 397.1941831247393 336.8963758855308 395.3266948519498 337.5094318382553 385.26752802914973C338.12248779097985 375.20836120634965 368.17637778626363 369.93471420632335 382.8306352337933 363.797958061144C397.48489268132306 357.6612019159646 392.35042541457096 359.3002717418134 407.8498675863981 355.81109853228884C423.3493097582252 352.32192532276423 448.0923459048617 329.9812453392916 457.2279576585636 347.04992665542585C466.3635694122654 364.11860797156004 463.0552273903437 414.89099287769545 451.70080400416697 437.74076884973306 "></path><path d="M445.78236612685083 357.63994437609847C453.0908555298123 371.2948894290058 450.4441819122749 411.91279735391413 441.36064320333355 430.19261813154424C432.27710449439223 448.47243890917434 414.1501865478409 449.6595524485812 402.18138032393233 445.38308410872315C390.2125741000237 441.106615768865 394.77992225634904 421.5757906489016 383.91037332857235 409.6655701002254C373.0408244007957 397.7553495515493 349.5171007084246 396.2613589333177 350.00754547060427 388.2140254750776C350.4979902327839 380.16669201683754 374.5411022290109 375.9477744168165 386.26450818703466 371.038369500673C397.9879141450584 366.1289645845295 393.8803403316568 367.4402204452085 406.2798940691185 364.64888187758885C418.6794478065802 361.8575433099692 438.47387672388936 343.9849993231911 445.78236612685083 357.63994437609847C453.0908555298123 371.2948894290058 450.4441819122749 411.91279735391413 441.36064320333355 430.19261813154424 "></path><path d="M434.3367898539272 368.22996209677115C439.8181569061483 378.47117088645166 437.8331516929953 408.93460183013286 431.02049766128926 422.64446741335547C424.20784362958324 436.354332996578 410.6126551696697 437.24466815113317 401.6360505017383 434.03731689623964C392.65944583380684 430.82996564134606 396.08495695105086 416.18184680137347 387.9327952552183 407.24918138986635C379.7806335593858 398.31651597835923 362.13784079010753 397.1960230146855 362.50567436174225 391.16052292100545C362.87350793337697 385.12502282732544 380.90584193054724 381.9608346273096 389.6983963990651 378.278780940202C398.4909508675829 374.5967272530944 395.41027050753166 375.58016914860366 404.70993581062794 373.4866652228889C414.0096011137242 371.3931612971742 428.8554228017061 357.98875330709063 434.3367898539272 368.22996209677115C439.8181569061483 378.47117088645166 437.8331516929953 408.93460183013286 431.02049766128926 422.64446741335547 "></path><path d="M422.89118306342544 378.8199645586547C426.54542776490615 385.6474370851084 425.2220909561375 405.95639104756253 420.6803216016668 415.0963014363776C416.1385522471961 424.23621182519264 407.07509327392046 424.8297685948961 401.09069016196617 422.691534424967C395.1062870500119 420.553300255038 397.3899611281745 410.78788769505627 391.9551866642862 404.8327774207182C386.52041220039786 398.8776671463801 374.75855035421233 398.1306718372643 375.0037727353021 394.1070051081443C375.24899511639194 390.0833383790242 387.27055111450545 387.9738795790137 393.13225409351736 385.51917712094195C398.9939570725292 383.0644746628702 396.94017016582836 383.72010259320973 403.1399470345592 382.3244333093999C409.33972390329006 380.92876402559006 419.2369383619447 371.992492032201 422.89118306342544 378.8199645586547C426.54542776490615 385.6474370851084 425.2220909561375 405.95639104756253 420.6803216016668 415.0963014363776 "></path><path d="M411.4455915317127 389.4099822793274C413.2727138824531 392.8237185425542 412.6110454780687 402.97819552378127 410.3401608008334 407.5481507181888C408.06927612359806 412.1181059125963 403.5375466369602 412.41488429744805 400.54534508098305 411.3457672124835C397.5531435250059 410.276650127519 398.69498056408725 405.39394384752813 395.9775933321431 402.4163887103591C393.2602061001989 399.43883357319004 387.37927517710614 399.0653359186322 387.5018863676511 397.0535025540721C387.62449755819597 395.0416691895121 393.6352755572527 393.98693978950683 396.56612704675865 392.759588560471C399.49697853626463 391.5322373314351 398.4700850829142 391.86005129660487 401.5699735172796 391.16221665469993C404.66986195164503 390.46438201279506 409.61846918097234 385.9962460161005 411.4455915317127 389.4099822793274C413.2727138824531 392.8237185425542 412.6110454780687 402.97819552378127 410.3401608008334 407.5481507181888 "></path></g></svg>